<svg width="135" height="55" viewBox="0 0 135 55" fill="none" xmlns="http://www.w3.org/2000/svg">
<g clip-path="url(#clip0_156_112)">
<path d="M18.5678 12.5626C19.7248 14.16 20.3032 15.9514 20.3032 17.9367C20.3032 20.5958 19.309 22.8687 17.3171 24.7587C15.3269 26.647 12.934 27.5903 10.1418 27.5903H0V0H7.24764C9.23786 0 10.9421 0.677104 12.3637 2.02967C13.7837 3.38223 14.4936 5.00432 14.4936 6.89923C14.4936 7.64207 14.3737 8.36026 14.1354 9.05544C15.9333 9.79664 17.4108 10.9668 18.5678 12.5642M7.24764 8.26658C8.21892 8.26658 8.70538 7.8097 8.70538 6.89758C8.70538 5.98547 8.21892 5.51215 7.24764 5.51215H5.80961V8.26658H7.24764ZM7.24764 13.7952H5.80961V22.0634H10.1434C11.3431 22.0634 12.367 21.6607 13.22 20.8571C14.0696 20.0518 14.4953 19.0789 14.4953 17.9383C14.4953 16.7978 14.0696 15.8215 13.22 15.013C12.3686 14.2027 11.3431 13.7968 10.1434 13.7968H7.24764V13.7952Z" fill="white"/>
<path d="M30.1409 23.6543L28.2707 27.5903H22.0847L34.4912 1.28518L35.1025 0L35.732 1.29997L48.1581 27.5887H41.9541L40.1019 23.6362L40.0132 23.4472H30.2297L30.1409 23.6526V23.6543ZM37.3869 17.9367L35.1206 13.1115L32.8362 17.9367H37.3869Z" fill="white"/>
<path d="M55.1199 0H49.3103V27.5903H55.1199V0Z" fill="white"/>
<path d="M58.1768 19.3057V0H68.3185C71.1124 0 73.5036 0.94663 75.4938 2.83989C77.4841 4.73315 78.4784 7.00441 78.4784 9.65201C78.4784 11.7063 77.8637 13.5519 76.6361 15.1905C75.4067 16.8273 73.8389 17.9876 71.9325 18.6729L78.4784 27.5903H71.3918L63.9847 17.4929V27.5903H58.1768V19.3057ZM68.3185 13.7952C69.5182 13.7952 70.5421 13.3909 71.3934 12.5807C72.2447 11.7704 72.672 10.7942 72.672 9.65201C72.672 8.50981 72.2464 7.55003 71.3934 6.73324C70.5438 5.91808 69.5182 5.51051 68.3185 5.51051H63.9847V13.7935H68.3185V13.7952Z" fill="white"/>
<path d="M105.85 4.05769C108.69 6.76282 110.112 10.0086 110.112 13.7952C110.112 17.5817 108.69 20.8456 105.85 23.5441C103.009 26.2427 99.5984 27.592 95.6179 27.592C91.6375 27.592 88.2125 26.2427 85.3759 23.5441C82.5409 20.8456 81.1243 17.5965 81.1243 13.7952C81.1243 9.99385 82.5426 6.76282 85.3759 4.05769C88.2108 1.35256 91.6243 0 95.6179 0C99.6115 0 103.009 1.35256 105.85 4.05605M89.4763 7.95104C87.7803 9.57641 86.9322 11.5256 86.9322 13.7952C86.9322 16.0648 87.7803 18.0254 89.4763 19.6409C91.174 21.2548 93.2201 22.0634 95.6179 22.0634C98.0157 22.0634 100.05 21.2565 101.758 19.6409C103.467 18.0254 104.32 16.0779 104.32 13.7952C104.32 11.5124 103.465 9.57641 101.758 7.95104C100.05 6.32402 98.0026 5.51215 95.6179 5.51215C93.2332 5.51215 91.174 6.32402 89.4763 7.95104Z" fill="white"/>
<path d="M129.19 15.0803V0H135V27.5903L117.61 12.4952V27.5903H111.802V0L129.19 15.0803Z" fill="white"/>
<path d="M134.734 54.3129H0.266357V34.5832H134.732V54.3129H134.734ZM3.81622 37.9112V50.5757H6.35372V45.5106L9.99233 50.3735L13.6293 45.5106V50.5757H16.1668V37.9112L9.99068 46.1449L3.81458 37.9112H3.81622ZM17.3205 37.9112V50.5757H24.9182V48.0398H19.858V45.5106H23.6527V42.9813H19.858V40.4421H24.9182V37.9129H17.3205V37.9112ZM33.0648 39.7749C31.824 38.5324 30.3334 37.9129 28.5946 37.9129H26.0571V50.5773H28.5946C30.3334 50.5773 31.824 49.9577 33.0648 48.7202C34.3056 47.4811 34.9268 45.9904 34.9268 44.2451C34.9268 42.4997 34.3056 41.0157 33.0648 39.7749ZM31.2751 46.9289C30.5306 47.6684 29.6382 48.0398 28.5962 48.0398V40.4405C29.6382 40.4405 30.5306 40.8152 31.2751 41.5613C32.0196 42.3075 32.3893 43.2031 32.3893 44.2435C32.3893 45.2838 32.0179 46.186 31.2751 46.9272M35.7831 50.5757H38.3206V37.9112H35.7831V50.5757ZM43.0356 48.6759H47.3103L47.3481 48.763L48.1583 50.5773H50.8683L45.44 38.5111L45.1656 37.9145L44.8977 38.5045L39.4759 50.579H42.1778L42.9962 48.7728L43.0356 48.6791V48.6759ZM44.1746 46.1449L45.1721 43.9296L46.1631 46.1449H44.1746ZM64.0867 38.4108C63.3208 38.0789 62.5024 37.9112 61.633 37.9112C59.8876 37.9112 58.397 38.5308 57.1579 39.7733C55.9187 41.0141 55.3007 42.5047 55.3007 44.2435C55.3007 45.9822 55.9203 47.4794 57.1579 48.7186C58.397 49.9577 59.8876 50.5757 61.633 50.5757C62.5024 50.5757 63.3208 50.4113 64.0867 50.0777C64.8542 49.7457 65.5296 49.2905 66.1098 48.7137L64.3184 46.9223C63.5739 47.6668 62.6782 48.0382 61.6313 48.0382C60.5845 48.0382 59.6888 47.6668 58.9476 46.9272C58.2064 46.186 57.8366 45.292 57.8366 44.2435C57.8366 43.1949 58.208 42.3075 58.9476 41.5613C59.6888 40.8168 60.5828 40.4405 61.6313 40.4405C62.6799 40.4405 63.564 40.8136 64.3184 41.558L66.1098 39.765C65.528 39.1964 64.8542 38.7428 64.0867 38.4108ZM77.8161 39.7749C76.5753 38.5324 75.0847 37.9129 73.3459 37.9129C71.6071 37.9129 70.1099 38.5341 68.8708 39.7749C67.6332 41.0157 67.0137 42.5063 67.0137 44.2451C67.0137 45.9839 67.6332 47.4811 68.8708 48.7202C70.1099 49.9594 71.6005 50.5773 73.3459 50.5773C75.0912 50.5773 76.5753 49.9577 77.8161 48.7202C79.0569 47.4811 79.6781 45.9904 79.6781 44.2451C79.6781 42.4997 79.0569 41.0157 77.8161 39.7749ZM70.6621 41.5613C71.4033 40.8152 72.299 40.4405 73.3459 40.4405C74.3928 40.4405 75.2819 40.8152 76.028 41.5613C76.7741 42.3075 77.1472 43.2015 77.1472 44.2435C77.1472 45.2854 76.7741 46.186 76.028 46.9272C75.2819 47.6668 74.3878 48.0382 73.3459 48.0382C72.3039 48.0382 71.4033 47.6668 70.6621 46.9272C69.9209 46.186 69.5511 45.292 69.5511 44.2435C69.5511 43.1949 69.9209 42.3075 70.6621 41.5613ZM80.416 37.9112V50.5757H82.9535V43.6469L90.5512 50.5757V37.9112H88.0137V44.8335L80.416 37.9112ZM95.1003 37.9112H91.9334V40.4405H95.1003V50.5757H97.6378V40.4405H100.803V37.9112H95.1003ZM102.06 37.9112V50.5757H109.658V48.0398H104.598V45.5106H108.393V42.9813H104.598V40.4421H109.658V37.9129H102.06V37.9112ZM110.797 37.9112V50.5757H113.334V43.6469L120.932 50.5757V37.9112H118.395V44.8335L110.797 37.9112ZM125.481 37.9112H122.316V40.4405H125.481V50.5757H128.019V40.4405H131.186V37.9112H125.481Z" fill="white"/>
</g>
<defs>
<clipPath id="clip0_156_112">
<rect width="135" height="54.3129" fill="white"/>
</clipPath>
</defs>
</svg>
