<svg width="133" height="166" viewBox="0 0 133 166" fill="none" xmlns="http://www.w3.org/2000/svg">
<g clip-path="url(#clip0_173_138)">
<path d="M34.9599 65.79L13.1799 69.13L29.0799 84.38L25.5299 106.12L44.9399 95.72L64.5199 105.81L60.6199 84.13L76.2699 68.63L54.4499 65.64L44.5499 45.96L34.9599 65.79Z" fill="#1D1D1B" stroke="#1D1D1B" stroke-width="2" stroke-linecap="round" stroke-linejoin="round"/>
<path d="M37.05 63.7L15.27 67.04L31.17 82.29L27.62 104.03L47.03 93.63L66.61 103.72L62.71 82.04L78.37 66.54L56.54 63.55L46.64 43.87L37.05 63.7Z" fill="#FFCF50" stroke="#1D1D1B" stroke-width="2" stroke-linecap="round" stroke-linejoin="round"/>
<path d="M46.64 43.87L44.55 45.96" stroke="#1D1D1B" stroke-width="2" stroke-linecap="round" stroke-linejoin="round"/>
<path d="M15.2699 67.04L13.1799 69.13" stroke="#1D1D1B" stroke-width="2" stroke-linecap="round" stroke-linejoin="round"/>
<path d="M66.61 103.72L64.52 105.81L62.52 102.66L66.61 103.72Z" fill="#1D1D1B" stroke="#1D1D1B" stroke-width="2" stroke-linecap="round" stroke-linejoin="round"/>
<path d="M15.1499 69.77C17.0799 69.77 17.0799 66.77 15.1499 66.77C13.2199 66.77 13.2199 69.77 15.1499 69.77Z" fill="#1D1D1B"/>
<path d="M12.2 37.86L1 39.58L9.18 47.42L7.35 58.61L17.34 53.26L27.41 58.45L25.41 47.3L33.46 39.32L22.23 37.78L17.14 27.66L12.2 37.86Z" fill="#1D1D1B" stroke="#1D1D1B" stroke-width="2" stroke-linecap="round" stroke-linejoin="round"/>
<path d="M13.2801 36.78L2.08008 38.5L10.2501 46.35L8.43008 57.53L18.4101 52.18L28.4901 57.37L26.4801 46.22L34.5301 38.25L23.3101 36.71L18.2101 26.58L13.2801 36.78Z" fill="#FFCF50" stroke="#1D1D1B" stroke-width="2" stroke-linecap="round" stroke-linejoin="round"/>
<path d="M18.2099 26.58L17.1399 27.66" stroke="#1D1D1B" stroke-width="2" stroke-linecap="round" stroke-linejoin="round"/>
<path d="M2.08 38.5L1 39.58" stroke="#1D1D1B" stroke-width="2" stroke-linecap="round" stroke-linejoin="round"/>
<path d="M28.4899 57.37L27.4099 58.45L26.3799 56.83L28.4899 57.37Z" fill="#1D1D1B" stroke="#1D1D1B" stroke-width="2" stroke-linecap="round" stroke-linejoin="round"/>
<path d="M2.01 40.64C3.94 40.64 3.94 37.64 2.01 37.64C0.08 37.64 0.08 40.64 2.01 40.64Z" fill="#1D1D1B"/>
<path d="M35.5199 10.7L25.8899 12.17L32.9199 18.92L31.3499 28.54L39.9399 23.93L48.5999 28.4L46.8699 18.81L53.7999 11.95L44.1399 10.63L39.7599 1.91998L35.5199 10.7Z" fill="#1D1D1B" stroke="#1D1D1B" stroke-width="2" stroke-linecap="round" stroke-linejoin="round"/>
<path d="M36.4398 9.77L26.8098 11.25L33.8398 17.99L32.2698 27.61L40.8598 23.01L49.5198 27.47L47.7998 17.88L54.7198 11.03L45.0698 9.7L40.6898 1L36.4398 9.77Z" fill="#FFCF50" stroke="#1D1D1B" stroke-width="2" stroke-linecap="round" stroke-linejoin="round"/>
<path d="M40.69 1L39.76 1.92" stroke="#1D1D1B" stroke-width="2" stroke-linecap="round" stroke-linejoin="round"/>
<path d="M26.8099 11.25L25.8899 12.17" stroke="#1D1D1B" stroke-width="2" stroke-linecap="round" stroke-linejoin="round"/>
<path d="M49.52 27.47L48.6 28.4L47.71 27L49.52 27.47Z" fill="#1D1D1B" stroke="#1D1D1B" stroke-width="2" stroke-linecap="round" stroke-linejoin="round"/>
<path d="M26.76 13.29C28.69 13.29 28.69 10.29 26.76 10.29C24.83 10.29 24.83 13.29 26.76 13.29Z" fill="#1D1D1B"/>
<path d="M101.99 129L120.93 131.95L107.06 145.19L110.11 164.11L93.23 155.02L76.17 163.76L79.61 144.9L66.02 131.38L85.02 128.82L93.68 111.72L101.99 129Z" fill="#1D1D1B" stroke="#1D1D1B" stroke-width="2" stroke-linecap="round" stroke-linejoin="round"/>
<path d="M100.17 127.17L119.11 130.12L105.25 143.36L108.29 162.29L91.42 153.19L74.36 161.94L77.79 143.08L64.2 129.56L83.2 127L91.86 109.89L100.17 127.17Z" fill="#FFCF50" stroke="#1D1D1B" stroke-width="2" stroke-linecap="round" stroke-linejoin="round"/>
<path d="M91.8599 109.89L93.6799 111.72" stroke="#1D1D1B" stroke-width="2" stroke-linecap="round" stroke-linejoin="round"/>
<path d="M119.11 130.12L120.93 131.95" stroke="#1D1D1B" stroke-width="2" stroke-linecap="round" stroke-linejoin="round"/>
<path d="M74.3599 161.94L76.1699 163.76L77.9199 161.02L74.3599 161.94Z" fill="#1D1D1B" stroke="#1D1D1B" stroke-width="2" stroke-linecap="round" stroke-linejoin="round"/>
<path d="M119.22 132.7C121.15 132.7 121.15 129.7 119.22 129.7C117.29 129.7 117.29 132.7 119.22 132.7Z" fill="#1D1D1B"/>
<path d="M121.85 104.74L131.59 106.26L124.46 113.07L126.03 122.8L117.34 118.12L108.57 122.62L110.34 112.92L103.34 105.96L113.12 104.65L117.57 95.85L121.85 104.74Z" fill="#1D1D1B" stroke="#1D1D1B" stroke-width="2" stroke-linecap="round" stroke-linejoin="round"/>
<path d="M120.91 103.8L130.66 105.32L123.52 112.13L125.09 121.86L116.41 117.18L107.63 121.68L109.4 111.98L102.41 105.02L112.18 103.71L116.64 94.91L120.91 103.8Z" fill="#FFCF50" stroke="#1D1D1B" stroke-width="2" stroke-linecap="round" stroke-linejoin="round"/>
<path d="M116.64 94.91L117.57 95.85" stroke="#1D1D1B" stroke-width="2" stroke-linecap="round" stroke-linejoin="round"/>
<path d="M130.66 105.32L131.59 106.26" stroke="#1D1D1B" stroke-width="2" stroke-linecap="round" stroke-linejoin="round"/>
<path d="M107.63 121.68L108.57 122.62L109.47 121.21L107.63 121.68Z" fill="#1D1D1B" stroke="#1D1D1B" stroke-width="2" stroke-linecap="round" stroke-linejoin="round"/>
<path d="M130.71 107.37C132.64 107.37 132.64 104.37 130.71 104.37C128.78 104.37 128.78 107.37 130.71 107.37Z" fill="#1D1D1B"/>
<path d="M101.61 81.05L109.99 82.35L103.86 88.21L105.2 96.58L97.74 92.56L90.19 96.42L91.71 88.08L85.7 82.1L94.11 80.97L97.94 73.4L101.61 81.05Z" fill="#1D1D1B" stroke="#1D1D1B" stroke-width="2" stroke-linecap="round" stroke-linejoin="round"/>
<path d="M100.81 80.24L109.19 81.54L103.05 87.4L104.4 95.77L96.9399 91.75L89.3899 95.62L90.9099 87.27L84.8999 81.29L93.2999 80.16L97.1299 72.6L100.81 80.24Z" fill="#FFCF50" stroke="#1D1D1B" stroke-width="2" stroke-linecap="round" stroke-linejoin="round"/>
<path d="M97.1299 72.6L97.9399 73.4" stroke="#1D1D1B" stroke-width="2" stroke-linecap="round" stroke-linejoin="round"/>
<path d="M109.19 81.54L109.99 82.35" stroke="#1D1D1B" stroke-width="2" stroke-linecap="round" stroke-linejoin="round"/>
<path d="M89.3899 95.62L90.1899 96.42L90.9699 95.21L89.3899 95.62Z" fill="#1D1D1B" stroke="#1D1D1B" stroke-width="2" stroke-linecap="round" stroke-linejoin="round"/>
<path d="M109.24 83.52C111.17 83.52 111.17 80.52 109.24 80.52C107.31 80.52 107.31 83.52 109.24 83.52Z" fill="#1D1D1B"/>
</g>
<defs>
<clipPath id="clip0_173_138">
<rect width="132.59" height="165.11" fill="white"/>
</clipPath>
</defs>
</svg>
