<svg width="45" height="50" viewBox="0 0 45 50" fill="none" xmlns="http://www.w3.org/2000/svg">
<g filter="url(#filter0_dd_144_284)">
<path d="M33.1427 4.6665H27.6427C25.2116 4.6665 22.88 5.63227 21.1609 7.35136C19.4418 9.07044 18.4761 11.402 18.4761 13.8332V19.3332H12.9761V26.6665H18.4761V41.3332H25.8094V26.6665H31.3094L33.1427 19.3332H25.8094V13.8332C25.8094 13.3469 26.0026 12.8806 26.3464 12.5368C26.6902 12.193 27.1565 11.9998 27.6427 11.9998H33.1427V4.6665Z" fill="white"/>
<path d="M35.238 4.6665C35.238 3.50934 34.2999 2.57127 33.1427 2.57127H27.6427C24.6559 2.57127 21.7914 3.75778 19.6794 5.8698C17.5674 7.98182 16.3808 10.8463 16.3808 13.8332V17.2379H12.9761C11.8189 17.2379 10.8808 18.176 10.8808 19.3332V26.6665C10.8808 27.8237 11.8189 28.7617 12.9761 28.7617H16.3808V41.3332C16.3808 42.4903 17.3189 43.4284 18.4761 43.4284H25.8094C26.9666 43.4284 27.9046 42.4903 27.9046 41.3332V28.7617H31.3094C32.2708 28.7617 33.1089 28.1074 33.3421 27.1747L35.1754 19.8413C35.3319 19.2154 35.1913 18.5523 34.7942 18.0437C34.3972 17.5352 33.7879 17.2379 33.1427 17.2379H27.9046V14.0951H33.1427C34.2999 14.0951 35.238 13.157 35.238 11.9998V4.6665Z" stroke="black" stroke-width="4.19048" stroke-linecap="round" stroke-linejoin="round"/>
</g>
<defs>
<filter id="filter0_dd_144_284" x="8.78564" y="0.476074" width="32.7383" height="49.2378" filterUnits="userSpaceOnUse" color-interpolation-filters="sRGB">
<feFlood flood-opacity="0" result="BackgroundImageFix"/>
<feColorMatrix in="SourceAlpha" type="matrix" values="0 0 0 0 0 0 0 0 0 0 0 0 0 0 0 0 0 0 127 0" result="hardAlpha"/>
<feOffset dx="2.09524" dy="2.09524"/>
<feComposite in2="hardAlpha" operator="out"/>
<feColorMatrix type="matrix" values="0 0 0 0 0 0 0 0 0 0 0 0 0 0 0 0 0 0 1 0"/>
<feBlend mode="normal" in2="BackgroundImageFix" result="effect1_dropShadow_144_284"/>
<feColorMatrix in="SourceAlpha" type="matrix" values="0 0 0 0 0 0 0 0 0 0 0 0 0 0 0 0 0 0 127 0" result="hardAlpha"/>
<feOffset dx="4.19048" dy="4.19048"/>
<feComposite in2="hardAlpha" operator="out"/>
<feColorMatrix type="matrix" values="0 0 0 0 0 0 0 0 0 0 0 0 0 0 0 0 0 0 1 0"/>
<feBlend mode="normal" in2="effect1_dropShadow_144_284" result="effect2_dropShadow_144_284"/>
<feBlend mode="normal" in="SourceGraphic" in2="effect2_dropShadow_144_284" result="shape"/>
</filter>
</defs>
</svg>
