<svg width="1280" height="375" viewBox="0 0 1280 375" fill="none" xmlns="http://www.w3.org/2000/svg">
<mask id="mask0_1201_271" style="mask-type:luminance" maskUnits="userSpaceOnUse" x="0" y="0" width="1280" height="375">
<path d="M1280 0H0V375H1280V0Z" fill="white"/>
</mask>
<g mask="url(#mask0_1201_271)">
<mask id="mask1_1201_271" style="mask-type:luminance" maskUnits="userSpaceOnUse" x="1" y="-210" width="1277" height="800">
<path d="M1277.34 -209.325H1.98828V589.486H1277.34V-209.325Z" fill="white"/>
</mask>
<g mask="url(#mask1_1201_271)">
<path d="M1277.34 -209.325H1.98828V589.486H1277.34V-209.325Z" fill="#C7AFE9"/>
<g style="mix-blend-mode:multiply">
<g opacity="0.15">
<path d="M1.9873 332.094L1.9873 474.107H129.525V332.094H1.9873Z" fill="#C7AFE9"/>
<path d="M1.99414 190.088L1.99414 332.101H129.531V190.088H1.99414Z" fill="#E4D7F9"/>
<path d="M1.9873 48.074L1.9873 190.088H129.525V48.074H1.9873Z" fill="#C7AFE9"/>
<path d="M1.9873 -93.9397L1.9873 48.074L129.524 48.074V-93.9397H1.9873Z" fill="#E4D7F9"/>
<path d="M257.062 48.074V-93.9397L129.524 -93.9397V48.074H257.062Z" fill="#C7AFE9"/>
<path d="M257.062 190.088V48.074L129.524 48.074V190.088H257.062Z" fill="#E4D7F9"/>
<path d="M257.055 332.101V190.088H129.518V332.101H257.055Z" fill="#C7AFE9"/>
<path d="M257.062 474.108V332.094H129.524V474.108H257.062Z" fill="#E4D7F9"/>
<path d="M257.056 332.094V474.107H384.593V332.094H257.056Z" fill="#C7AFE9"/>
<path d="M257.062 190.08V332.094H384.6V190.08H257.062Z" fill="#E4D7F9"/>
<path d="M257.062 48.0666V190.08H384.6V48.0666H257.062Z" fill="#C7AFE9"/>
<path d="M257.056 -93.9397V48.074L384.593 48.074V-93.9397H257.056Z" fill="#E4D7F9"/>
<path d="M512.129 48.0739V-93.9397L384.592 -93.9397V48.0739H512.129Z" fill="#C7AFE9"/>
<path d="M512.129 190.088V48.074L384.592 48.074V190.088H512.129Z" fill="#E4D7F9"/>
<path d="M512.129 332.094V190.08H384.592V332.094H512.129Z" fill="#C7AFE9"/>
<path d="M512.129 474.108V332.094H384.592V474.108H512.129Z" fill="#E4D7F9"/>
<path d="M512.129 332.094V474.107H639.666V332.094H512.129Z" fill="#C7AFE9"/>
<path d="M512.129 190.08V332.094H639.666V190.08H512.129Z" fill="#E4D7F9"/>
<path d="M512.129 48.074V190.088H639.666V48.074H512.129Z" fill="#C7AFE9"/>
<path d="M512.129 -93.9397V48.074L639.666 48.074V-93.9397H512.129Z" fill="#E4D7F9"/>
<path d="M767.205 48.0813V-93.9324L639.668 -93.9324V48.0813H767.205Z" fill="#C7AFE9"/>
<path d="M767.198 190.088V48.074L639.661 48.074V190.088H767.198Z" fill="#E4D7F9"/>
<path d="M767.198 332.101V190.088H639.661V332.101H767.198Z" fill="#C7AFE9"/>
<path d="M767.205 474.115V332.101H639.668V474.115H767.205Z" fill="#E4D7F9"/>
<path d="M767.198 332.094V474.107H894.735V332.094H767.198Z" fill="#C7AFE9"/>
<path d="M767.205 190.088V332.101H894.742V190.088H767.205Z" fill="#E4D7F9"/>
<path d="M767.198 48.074V190.088H894.735V48.074H767.198Z" fill="#C7AFE9"/>
<path d="M767.198 -93.9397V48.074L894.735 48.074V-93.9397H767.198Z" fill="#E4D7F9"/>
<path d="M1022.27 48.0739V-93.9397L894.735 -93.9397V48.0739H1022.27Z" fill="#C7AFE9"/>
<path d="M1022.27 190.088V48.074L894.735 48.074V190.088H1022.27Z" fill="#E4D7F9"/>
<path d="M1022.26 332.101V190.087H894.727V332.101H1022.26Z" fill="#C7AFE9"/>
<path d="M1022.27 474.108V332.094H894.735V474.108H1022.27Z" fill="#E4D7F9"/>
<path d="M1022.27 332.094V474.107H1149.8V332.094H1022.27Z" fill="#C7AFE9"/>
<path d="M1022.27 190.08V332.094H1149.81V190.08H1022.27Z" fill="#E4D7F9"/>
<path d="M1022.27 48.0666V190.08H1149.81V48.0666H1022.27Z" fill="#C7AFE9"/>
<path d="M1022.27 -93.9397V48.074L1149.8 48.074V-93.9397H1022.27Z" fill="#E4D7F9"/>
<path d="M1277.34 48.074V-93.9397L1149.8 -93.9397V48.074H1277.34Z" fill="#C7AFE9"/>
<path d="M1277.34 190.088V48.074L1149.8 48.074V190.088H1277.34Z" fill="#E4D7F9"/>
<path d="M1277.34 332.094V190.08H1149.8V332.094H1277.34Z" fill="#C7AFE9"/>
<path d="M1277.34 474.108V332.094H1149.8V474.108H1277.34Z" fill="#E4D7F9"/>
</g>
</g>
<g style="mix-blend-mode:multiply">
<g opacity="0.15">
<path d="M1.9873 332.094L1.9873 474.107H129.525V332.094H1.9873Z" fill="#C7AFE9"/>
<path d="M1.99414 190.088L1.99414 332.101H129.531V190.088H1.99414Z" fill="#E4D7F9"/>
<path d="M1.9873 48.074L1.9873 190.088H129.525V48.074H1.9873Z" fill="#C7AFE9"/>
<path d="M1.9873 -93.9397L1.9873 48.074L129.524 48.074V-93.9397H1.9873Z" fill="#E4D7F9"/>
<path d="M257.062 48.074V-93.9397L129.524 -93.9397V48.074H257.062Z" fill="#C7AFE9"/>
<path d="M257.062 190.088V48.074L129.524 48.074V190.088H257.062Z" fill="#E4D7F9"/>
<path d="M257.055 332.101V190.088H129.518V332.101H257.055Z" fill="#C7AFE9"/>
<path d="M257.062 474.108V332.094H129.524V474.108H257.062Z" fill="#E4D7F9"/>
<path d="M257.056 332.094V474.107H384.593V332.094H257.056Z" fill="#C7AFE9"/>
<path d="M257.062 190.08V332.094H384.6V190.08H257.062Z" fill="#E4D7F9"/>
<path d="M257.062 48.0666V190.08H384.6V48.0666H257.062Z" fill="#C7AFE9"/>
<path d="M257.056 -93.9397V48.074L384.593 48.074V-93.9397H257.056Z" fill="#E4D7F9"/>
<path d="M512.129 48.0739V-93.9397L384.592 -93.9397V48.0739H512.129Z" fill="#C7AFE9"/>
<path d="M512.129 190.088V48.074L384.592 48.074V190.088H512.129Z" fill="#E4D7F9"/>
<path d="M512.129 332.094V190.08H384.592V332.094H512.129Z" fill="#C7AFE9"/>
<path d="M512.129 474.108V332.094H384.592V474.108H512.129Z" fill="#E4D7F9"/>
<path d="M512.129 332.094V474.107H639.666V332.094H512.129Z" fill="#C7AFE9"/>
<path d="M512.129 190.08V332.094H639.666V190.08H512.129Z" fill="#E4D7F9"/>
<path d="M512.129 48.074V190.088H639.666V48.074H512.129Z" fill="#C7AFE9"/>
<path d="M512.129 -93.9397V48.074L639.666 48.074V-93.9397H512.129Z" fill="#E4D7F9"/>
<path d="M767.205 48.0813V-93.9324L639.668 -93.9324V48.0813H767.205Z" fill="#C7AFE9"/>
<path d="M767.198 190.088V48.074L639.661 48.074V190.088H767.198Z" fill="#E4D7F9"/>
<path d="M767.198 332.101V190.088H639.661V332.101H767.198Z" fill="#C7AFE9"/>
<path d="M767.205 474.115V332.101H639.668V474.115H767.205Z" fill="#E4D7F9"/>
<path d="M767.198 332.094V474.107H894.735V332.094H767.198Z" fill="#C7AFE9"/>
<path d="M767.205 190.088V332.101H894.742V190.088H767.205Z" fill="#E4D7F9"/>
<path d="M767.198 48.074V190.088H894.735V48.074H767.198Z" fill="#C7AFE9"/>
<path d="M767.198 -93.9397V48.074L894.735 48.074V-93.9397H767.198Z" fill="#E4D7F9"/>
<path d="M1022.27 48.0739V-93.9397L894.735 -93.9397V48.0739H1022.27Z" fill="#C7AFE9"/>
<path d="M1022.27 190.088V48.074L894.735 48.074V190.088H1022.27Z" fill="#E4D7F9"/>
<path d="M1022.26 332.101V190.087H894.727V332.101H1022.26Z" fill="#C7AFE9"/>
<path d="M1022.27 474.108V332.094H894.735V474.108H1022.27Z" fill="#E4D7F9"/>
<path d="M1022.27 332.094V474.107H1149.8V332.094H1022.27Z" fill="#C7AFE9"/>
<path d="M1022.27 190.08V332.094H1149.81V190.08H1022.27Z" fill="#E4D7F9"/>
<path d="M1022.27 48.0666V190.08H1149.81V48.0666H1022.27Z" fill="#C7AFE9"/>
<path d="M1022.27 -93.9397V48.074L1149.8 48.074V-93.9397H1022.27Z" fill="#E4D7F9"/>
<path d="M1277.34 48.074V-93.9397L1149.8 -93.9397V48.074H1277.34Z" fill="#C7AFE9"/>
<path d="M1277.34 190.088V48.074L1149.8 48.074V190.088H1277.34Z" fill="#E4D7F9"/>
<path d="M1277.34 332.094V190.08H1149.8V332.094H1277.34Z" fill="#C7AFE9"/>
<path d="M1277.34 474.108V332.094H1149.8V474.108H1277.34Z" fill="#E4D7F9"/>
</g>
</g>
</g>
</g>
</svg>
