<svg width="52" height="52" viewBox="0 0 52 52" fill="none" xmlns="http://www.w3.org/2000/svg">
<path d="M30.1368 25.6316C30.1368 28.1246 28.1239 30.1375 25.6309 30.1375C23.1379 30.1375 21.125 28.1246 21.125 25.6316C21.125 23.1386 23.1379 21.1257 25.6309 21.1257C28.1239 21.1257 30.1368 23.1386 30.1368 25.6316Z" fill="black"/>
<path d="M33.2396 12.0146H18.0208C14.7066 12.0146 12.0137 14.7076 12.0137 18.0218V33.2406C12.0137 36.5548 14.7066 39.2477 18.0208 39.2477H33.2396C36.5538 39.2477 39.2467 36.5548 39.2467 33.2406V18.0218C39.2467 14.7076 36.5538 12.0146 33.2396 12.0146ZM25.6308 33.1412C21.4852 33.1412 18.1213 29.7773 18.1213 25.6317C18.1213 21.4862 21.4852 18.1223 25.6308 18.1223C29.7763 18.1223 33.1402 21.4862 33.1402 25.6317C33.1402 29.7773 29.7763 33.1412 25.6308 33.1412ZM34.2416 18.5233C33.4102 18.5233 32.7392 17.8523 32.7392 17.021C32.7392 16.1896 33.4102 15.5186 34.2416 15.5186C35.0729 15.5186 35.7439 16.1896 35.7439 17.021C35.7439 17.8523 35.0729 18.5233 34.2416 18.5233Z" fill="black"/>
<path d="M37.7461 0H13.5166C6.06698 0 0 6.06698 0 13.5166V37.7461C0 45.1957 6.06698 51.2626 13.5166 51.2626H37.7461C45.1957 51.2626 51.2626 45.1957 51.2626 37.7461V13.5166C51.2626 6.06698 45.1957 0 37.7461 0ZM42.252 33.2402C42.252 38.2058 38.2069 42.2509 33.2413 42.2509H18.0225C13.0568 42.2509 9.0118 38.2058 9.0118 33.2402V18.0213C9.0118 13.0557 13.0568 9.01067 18.0225 9.01067H33.2413C38.2069 9.01067 42.252 13.0557 42.252 18.0213V33.2402Z" fill="black"/>
</svg>
