<svg width="53" height="52" viewBox="0 0 53 52" fill="none" xmlns="http://www.w3.org/2000/svg">
<g clip-path="url(#clip0_555_626)">
<mask id="mask0_555_626" style="mask-type:luminance" maskUnits="userSpaceOnUse" x="0" y="0" width="53" height="52">
<path d="M26.5649 51.2629C40.7207 51.2629 52.1962 39.7874 52.1962 25.6316C52.1962 11.4758 40.7207 0.000244141 26.5649 0.000244141C12.4091 0.000244141 0.933594 11.4758 0.933594 25.6316C0.933594 39.7874 12.4091 51.2629 26.5649 51.2629Z" fill="white"/>
</mask>
<g mask="url(#mask0_555_626)">
<path d="M48.5014 0.000244141H4.62845C2.58617 0.000244141 0.933594 1.65282 0.933594 3.6951V47.559C0.933594 49.6013 2.58617 51.2539 4.62845 51.2539H48.4923C50.5346 51.2539 52.1872 49.6013 52.1872 47.559V3.6951C52.1872 1.65282 50.5346 0.000244141 48.4923 0.000244141H48.5025H48.5014ZM19.1153 38.7471H12.8778V19.9645H19.1153V38.7471ZM15.992 17.4014H15.9525C13.8594 17.4014 12.4982 15.9601 12.4982 14.1573C12.4982 12.3545 13.8899 10.9131 16.0327 10.9131C18.1755 10.9131 19.487 12.3149 19.5265 14.1573C19.5265 15.959 18.1744 17.4014 15.992 17.4014ZM41.6234 38.7471H35.3858V28.7052C35.3858 26.1817 34.4844 24.4602 32.2219 24.4602C29.9593 24.4602 29.4679 25.6214 29.0184 26.7431C28.858 27.1441 28.8083 27.7043 28.8083 28.2646V38.7573H22.5707C22.5707 38.7573 22.6509 21.7368 22.5707 19.9746H28.8083V22.6382C29.6396 21.3561 31.1216 19.5341 34.4347 19.5341C37.7478 19.5341 41.6234 22.2168 41.6234 27.9845V38.7573V38.7471Z" fill="black"/>
</g>
</g>
<defs>
<clipPath id="clip0_555_626">
<rect width="51.2626" height="51.2626" fill="white" transform="translate(0.93457 0.000244141)"/>
</clipPath>
</defs>
</svg>
