<svg width="53" height="52" viewBox="0 0 53 52" fill="none" xmlns="http://www.w3.org/2000/svg">
<g clip-path="url(#clip0_555_641)">
<mask id="mask0_555_641" style="mask-type:luminance" maskUnits="userSpaceOnUse" x="0" y="0" width="53" height="52">
<path d="M26.4341 51.2631C40.5898 51.2631 52.0654 39.7876 52.0654 25.6318C52.0654 11.476 40.5898 0.000488281 26.4341 0.000488281C12.2783 0.000488281 0.802734 11.476 0.802734 25.6318C0.802734 39.7876 12.2783 51.2631 26.4341 51.2631Z" fill="white"/>
</mask>
<g mask="url(#mask0_555_641)">
<path d="M26.4341 25.7323L14.9598 16.6211H37.9174L26.4431 25.7323H26.4329H26.4341ZM26.4341 28.475C26.1743 28.475 25.9032 28.3846 25.6829 28.2152L12.617 17.8321V33.9613C12.617 34.3318 12.9175 34.6425 13.2982 34.6425H39.5801C39.9506 34.6425 40.2613 34.342 40.2613 33.9613V17.8219L27.1954 28.205C26.9751 28.3756 26.7153 28.4648 26.4442 28.4648L26.4341 28.475ZM52.0654 7.84995V43.4137C52.0654 47.7388 48.5411 51.2631 44.2159 51.2631H8.65219C4.32703 51.2631 0.802734 47.7388 0.802734 43.4137V7.84995C0.802734 3.52478 4.32703 0.000488281 8.65219 0.000488281H44.2159C48.5411 0.000488281 52.0654 3.52478 52.0654 7.84995ZM42.6537 17.3012C42.6537 15.5989 41.2722 14.2174 39.57 14.2174H13.2982C11.5959 14.2174 10.2144 15.5989 10.2144 17.3012V33.9715C10.2144 35.6738 11.5959 37.0553 13.2982 37.0553H39.5801C41.2824 37.0553 42.6639 35.6738 42.6639 33.9715V17.3012H42.6537Z" fill="black"/>
</g>
</g>
<defs>
<clipPath id="clip0_555_641">
<rect width="51.2626" height="51.2626" fill="white" transform="translate(0.803711 0.000244141)"/>
</clipPath>
</defs>
</svg>
