<svg width="53" height="52" viewBox="0 0 53 52" fill="none" xmlns="http://www.w3.org/2000/svg">
<g clip-path="url(#clip0_555_647)">
<path fill-rule="evenodd" clip-rule="evenodd" d="M26.4995 0.000488281C40.6565 0.000488281 52.1308 11.4748 52.1308 25.6318C52.1308 39.7889 40.6565 51.2631 26.4995 51.2631C12.3424 51.2631 0.868164 39.7889 0.868164 25.6318C0.868164 11.4748 12.3424 0.000488281 26.4995 0.000488281ZM32.257 10.6129C32.257 11.0738 32.397 17.701 39.3552 18.1224V23.2484C38.8243 23.2789 34.7691 22.9886 32.2468 20.7351V30.707C32.3372 37.6359 27.2405 41.8402 20.5827 40.3887C9.09829 36.9547 12.9129 19.924 24.447 21.7461V27.2426C19.6813 26.5423 18.0898 30.5071 19.3504 33.3401C20.5014 35.9234 25.2479 36.4837 26.8994 32.8397C27.0891 32.1292 27.1795 31.3181 27.1795 30.3964V10.5937L32.2457 10.6242L32.2558 10.614L32.257 10.6129Z" fill="black"/>
</g>
<defs>
<clipPath id="clip0_555_647">
<rect width="51.2626" height="51.2626" fill="white" transform="translate(0.868164 0.000244141)"/>
</clipPath>
</defs>
</svg>
