<svg width="54" height="47" viewBox="0 0 54 47" fill="none" xmlns="http://www.w3.org/2000/svg">
<g filter="url(#filter0_dd_144_283)">
<path d="M45.1668 5.49988C43.4112 6.73826 41.4674 7.68541 39.4102 8.30488C38.306 7.03532 36.8386 6.13548 35.2064 5.72708C33.5742 5.31867 31.8559 5.42141 30.284 6.02138C28.7121 6.62135 27.3623 7.68962 26.4173 9.08169C25.4723 10.4738 24.9776 12.1225 25.0002 13.8049V15.6382C21.7783 15.7218 18.5858 15.0072 15.707 13.5582C12.8282 12.1092 10.3524 9.97071 8.50016 7.33321C8.50016 7.33321 1.16683 23.8332 17.6668 31.1665C13.8911 33.7295 9.39328 35.0146 4.8335 34.8332C21.3335 43.9999 41.5002 34.8332 41.5002 13.7499C41.4985 13.2392 41.4494 12.7298 41.3535 12.2282C43.2246 10.383 44.545 8.05319 45.1668 5.49988Z" fill="white"/>
<path d="M47.2026 5.99565C47.4092 5.14708 47.0678 4.25933 46.3459 3.76786C45.6239 3.2764 44.6728 3.28431 43.9591 3.78773C42.7215 4.66074 41.3793 5.37207 39.9654 5.90578C38.747 4.84951 37.2923 4.08917 35.715 3.6945C33.6664 3.18191 31.5098 3.31085 29.5368 4.06388C27.5639 4.81691 25.8698 6.15769 24.6838 7.90489C23.5644 9.55384 22.9484 11.4897 22.9065 13.4772C20.7328 13.2787 18.6095 12.6734 16.649 11.6867C14.0788 10.393 11.8685 8.48379 10.2148 6.12906C9.78101 5.51135 9.04849 5.17472 8.29722 5.24783C7.54595 5.32094 6.89207 5.79249 6.58551 6.48226L8.50016 7.33321C6.58551 6.48226 6.58507 6.48326 6.58459 6.48432L6.58351 6.48677L6.58085 6.49281L6.57356 6.50947L6.5515 6.5608C6.53358 6.60293 6.50939 6.6608 6.4799 6.73361C6.42093 6.87916 6.34063 7.0848 6.24687 7.34414C6.05959 7.86215 5.81716 8.59837 5.58364 9.50131C5.11912 11.2975 4.67613 13.8057 4.80292 16.595C4.93012 19.3935 5.63391 22.5179 7.5035 25.4699C8.83503 27.5723 10.7176 29.5231 13.2901 31.187C10.664 32.3173 7.80414 32.8545 4.91677 32.7396C3.94726 32.7011 3.0781 33.3332 2.81609 34.2674C2.55409 35.2017 2.96778 36.1936 3.81596 36.6648C12.6453 41.57 22.5664 41.6218 30.3388 37.4849C38.1622 33.3208 43.5954 25.0247 43.5954 13.7499L43.5954 13.7429C43.5945 13.476 43.5833 13.2094 43.5618 12.9436C45.321 10.9638 46.5733 8.57941 47.2026 5.99565ZM10.4168 8.17964L10.4163 8.18094C10.4169 8.17954 10.4171 8.1791 10.4168 8.17964Z" stroke="black" stroke-width="4.19048" stroke-linecap="round" stroke-linejoin="round"/>
</g>
<defs>
<filter id="filter0_dd_144_283" x="0.642578" y="1.29102" width="52.7862" height="45.4683" filterUnits="userSpaceOnUse" color-interpolation-filters="sRGB">
<feFlood flood-opacity="0" result="BackgroundImageFix"/>
<feColorMatrix in="SourceAlpha" type="matrix" values="0 0 0 0 0 0 0 0 0 0 0 0 0 0 0 0 0 0 127 0" result="hardAlpha"/>
<feOffset dx="2.09524" dy="2.09524"/>
<feComposite in2="hardAlpha" operator="out"/>
<feColorMatrix type="matrix" values="0 0 0 0 0 0 0 0 0 0 0 0 0 0 0 0 0 0 1 0"/>
<feBlend mode="normal" in2="BackgroundImageFix" result="effect1_dropShadow_144_283"/>
<feColorMatrix in="SourceAlpha" type="matrix" values="0 0 0 0 0 0 0 0 0 0 0 0 0 0 0 0 0 0 127 0" result="hardAlpha"/>
<feOffset dx="4.19048" dy="4.19048"/>
<feComposite in2="hardAlpha" operator="out"/>
<feColorMatrix type="matrix" values="0 0 0 0 0 0 0 0 0 0 0 0 0 0 0 0 0 0 1 0"/>
<feBlend mode="normal" in2="effect1_dropShadow_144_283" result="effect2_dropShadow_144_283"/>
<feBlend mode="normal" in="SourceGraphic" in2="effect2_dropShadow_144_283" result="shape"/>
</filter>
</defs>
</svg>
