<svg width="52" height="52" viewBox="0 0 52 52" fill="none" xmlns="http://www.w3.org/2000/svg">
<g clip-path="url(#clip0_555_651)">
<path d="M26.3686 51.2629C40.5244 51.2629 52 39.7874 52 25.6316C52 11.4758 40.5244 0.000244141 26.3686 0.000244141C12.2128 0.000244141 0.737305 11.4758 0.737305 25.6316C0.737305 39.7874 12.2128 51.2629 26.3686 51.2629Z" fill="black"/>
<path d="M38.9443 19.4744C38.6235 18.0929 37.4928 17.0718 36.1305 16.9114C32.8966 16.551 29.6321 16.551 26.3789 16.551C23.1257 16.551 19.851 16.551 16.6272 16.9114C15.266 17.0616 14.1342 18.0827 13.8134 19.4744C13.3627 21.4466 13.3525 23.5996 13.3525 25.6317C13.3525 27.6638 13.3525 29.8168 13.8032 31.7891C14.124 33.1706 15.2548 34.1917 16.617 34.3521C19.851 34.7124 23.1155 34.7124 26.3687 34.7124C29.6219 34.7124 32.8966 34.7124 36.1204 34.3521C37.4815 34.2019 38.6134 33.1807 38.9342 31.7891C39.3849 29.8168 39.395 27.6638 39.395 25.6317C39.395 23.5996 39.395 21.4466 38.9443 19.4744ZM23.0048 29.6768V21.066C25.7678 22.5073 28.5115 23.9396 31.2846 25.3911C28.5115 26.8234 25.7678 28.2546 23.0048 29.6869V29.6768Z" fill="white"/>
</g>
<defs>
<clipPath id="clip0_555_651">
<rect width="51.2626" height="51.2626" fill="white" transform="translate(0.737305 0.000244141)"/>
</clipPath>
</defs>
</svg>
