<svg width="54" height="45" viewBox="0 0 54 45" fill="none" xmlns="http://www.w3.org/2000/svg">
<g filter="url(#filter0_dd_144_285)">
<path d="M44.6092 11.7702C44.3914 10.9001 43.9479 10.1029 43.3234 9.45907C42.6989 8.81527 41.9156 8.34767 41.0526 8.1035C37.8992 7.3335 25.2859 7.3335 25.2859 7.3335C25.2859 7.3335 12.6725 7.3335 9.51921 8.17683C8.65617 8.421 7.87284 8.8886 7.24835 9.53241C6.62386 10.1762 6.18032 10.9734 5.96255 11.8435C5.38544 15.0437 5.10314 18.2901 5.11921 21.5418C5.09864 24.8181 5.38095 28.0892 5.96255 31.3135C6.20264 32.1566 6.65611 32.9234 7.27914 33.54C7.90218 34.1567 8.67372 34.6022 9.51921 34.8335C12.6725 35.6768 25.2859 35.6768 25.2859 35.6768C25.2859 35.6768 37.8992 35.6768 41.0526 34.8335C41.9156 34.5893 42.6989 34.1217 43.3234 33.4779C43.9479 32.8341 44.3914 32.0369 44.6092 31.1668C45.1819 27.9907 45.4641 24.7691 45.4525 21.5418C45.4731 18.2656 45.1908 14.9944 44.6092 11.7702Z" fill="white"/>
<path d="M46.6712 11.3982C46.6629 11.3523 46.6531 11.3067 46.6418 11.2614C46.3344 10.0337 45.7086 8.90872 44.8274 8.00025C43.9461 7.09178 42.8408 6.43194 41.6229 6.08739C41.5986 6.08051 41.5741 6.07406 41.5496 6.06806C40.5607 5.82659 39.0087 5.675 37.3979 5.56773C35.7329 5.45685 33.83 5.38375 32.0435 5.33528C30.2541 5.28673 28.5661 5.2625 27.3264 5.25039C26.7062 5.24433 26.1974 5.2413 25.843 5.23978C25.6658 5.23902 25.5272 5.23864 25.4325 5.23845L25.3242 5.23828L25.296 5.23826L25.2887 5.23826L25.2867 5.23826H25.2861C25.286 5.23826 25.2859 5.23826 25.2859 7.3335C25.2859 5.23826 25.2858 5.23826 25.2856 5.23826H25.285L25.283 5.23826L25.2756 5.23826L25.2473 5.23828L25.1388 5.23847C25.044 5.23868 24.9053 5.2391 24.7279 5.23993C24.3732 5.24159 23.864 5.24492 23.2434 5.25155C22.003 5.26482 20.3138 5.29138 18.5228 5.3446C16.7352 5.39772 14.8293 5.47788 13.1606 5.59959C11.5506 5.71703 9.98339 5.88382 8.97788 6.15273L8.94882 6.16073C7.73097 6.50528 6.62562 7.16511 5.7444 8.07358C4.86319 8.98205 4.23732 10.107 3.93001 11.3348C3.91867 11.38 3.90885 11.4257 3.90057 11.4716C3.30141 14.7941 3.00798 18.1644 3.02394 21.5404C3.00331 24.9419 3.29677 28.3379 3.90058 31.6854C3.91286 31.7535 3.92849 31.8209 3.94743 31.8874C4.28623 33.077 4.92612 34.1592 5.80528 35.0293C6.68445 35.8994 7.77316 36.528 8.96625 36.8545L8.96624 36.8545L8.97788 36.8576C9.98339 37.1265 11.5506 37.2933 13.1606 37.4107C14.8293 37.5324 16.7352 37.6126 18.5228 37.6657C20.3138 37.719 22.003 37.7455 23.2434 37.7588C23.864 37.7654 24.3732 37.7687 24.7279 37.7704C24.9053 37.7712 25.044 37.7717 25.1388 37.7719L25.2473 37.772L25.2756 37.7721L25.283 37.7721H25.285H25.2856C25.2858 37.7721 25.2859 37.7721 25.2859 35.6768C25.2859 37.7721 25.286 37.7721 25.2862 37.7721H25.2867H25.2887L25.2961 37.7721L25.3244 37.772L25.4329 37.7719C25.5277 37.7717 25.6665 37.7712 25.8438 37.7704C26.1985 37.7687 26.7078 37.7654 27.3284 37.7588C28.5688 37.7455 30.258 37.719 32.0489 37.6657C33.8366 37.6126 35.7424 37.5324 37.4111 37.4107C39.0212 37.2933 40.5884 37.1265 41.5939 36.8576L41.6229 36.8496C42.8408 36.5051 43.9461 35.8452 44.8274 34.9367C45.7086 34.0283 46.3344 32.9033 46.6418 31.6756C46.6531 31.6303 46.6629 31.5846 46.6712 31.5386C47.2658 28.2407 47.5592 24.8955 47.5478 21.5444C47.5685 18.1425 47.2751 14.7461 46.6712 11.3982Z" stroke="black" stroke-width="4.19048" stroke-linecap="round" stroke-linejoin="round"/>
</g>
<path d="M21.1606 27.5364L31.7023 21.5414L21.1606 15.5464V27.5364Z" fill="white" stroke="black" stroke-width="4.19048" stroke-linecap="round" stroke-linejoin="round"/>
<defs>
<filter id="filter0_dd_144_285" x="0.927734" y="3.14307" width="52.9068" height="40.9146" filterUnits="userSpaceOnUse" color-interpolation-filters="sRGB">
<feFlood flood-opacity="0" result="BackgroundImageFix"/>
<feColorMatrix in="SourceAlpha" type="matrix" values="0 0 0 0 0 0 0 0 0 0 0 0 0 0 0 0 0 0 127 0" result="hardAlpha"/>
<feOffset dx="2.09524" dy="2.09524"/>
<feComposite in2="hardAlpha" operator="out"/>
<feColorMatrix type="matrix" values="0 0 0 0 0 0 0 0 0 0 0 0 0 0 0 0 0 0 1 0"/>
<feBlend mode="normal" in2="BackgroundImageFix" result="effect1_dropShadow_144_285"/>
<feColorMatrix in="SourceAlpha" type="matrix" values="0 0 0 0 0 0 0 0 0 0 0 0 0 0 0 0 0 0 127 0" result="hardAlpha"/>
<feOffset dx="4.19048" dy="4.19048"/>
<feComposite in2="hardAlpha" operator="out"/>
<feColorMatrix type="matrix" values="0 0 0 0 0 0 0 0 0 0 0 0 0 0 0 0 0 0 1 0"/>
<feBlend mode="normal" in2="effect1_dropShadow_144_285" result="effect2_dropShadow_144_285"/>
<feBlend mode="normal" in="SourceGraphic" in2="effect2_dropShadow_144_285" result="shape"/>
</filter>
</defs>
</svg>
